<svg width="500" height="500" viewBox="0 0 500 500" fill="none" xmlns="http://www.w3.org/2000/svg">
<path d="M103.812 48.3081L283.475 20.7634C318.06 15.461 350.395 39.1994 355.698 73.7845L398.071 350.168C403.373 384.753 379.635 417.088 345.05 422.391L165.386 449.935C130.801 455.238 98.4661 431.499 93.1638 396.914L50.7906 120.531C45.4882 85.9457 69.2266 53.6105 103.812 48.3081Z" fill="url(#paint0_linear_106_385)" stroke="#2C3439" stroke-width="15.1181"/>
<path d="M386.597 73.658H204.834C169.845 73.658 141.481 102.022 141.481 137.012V416.624C141.481 451.614 169.845 479.978 204.834 479.978H386.597C421.586 479.978 449.951 451.614 449.951 416.624V137.012C449.951 102.022 421.586 73.658 386.597 73.658Z" fill="#73A1B9" stroke="#2C3439" stroke-width="15.1181"/>
<path d="M382.753 229.106L275.335 333.885C272.568 336.584 268.994 338.062 265.298 338.036C261.603 338.011 258.046 336.482 255.31 333.745L211.112 289.518" stroke="#2C3439" stroke-width="22.6772" stroke-linecap="round" stroke-linejoin="bevel"/>
<defs>
<linearGradient id="paint0_linear_106_385" x1="199.912" y1="75.424" x2="248.949" y2="395.275" gradientUnits="userSpaceOnUse">
<stop stop-color="#73A1B9"/>
<stop offset="1" stop-color="#2C3439"/>
</linearGradient>
</defs>
</svg>

